<svg width="40" height="40" viewBox="0 0 40 40" fill="none" xmlns="http://www.w3.org/2000/svg">
<path d="M0.5 7C0.5 3.41015 3.41015 0.5 7 0.5H39.5V33C39.5 36.5899 36.5899 39.5 33 39.5H0.5V7Z" fill="#F6E9FE" stroke="#632FD9"/>
<path d="M12 25.9998V18.9998M16 25.9998V18.9998M20 25.9998V18.9998M24 25.9998V18.9998M28 25.9998V18.9998M9 29.9998H31M20.37 10.1498L29.37 13.7498C29.72 13.8898 30 14.3098 30 14.6798V17.9998C30 18.5498 29.55 18.9998 29 18.9998H11C10.45 18.9998 10 18.5498 10 17.9998V14.6798C10 14.3098 10.28 13.8898 10.63 13.7498L19.63 10.1498C19.83 10.0698 20.17 10.0698 20.37 10.1498ZM30 29.9998H10V26.9998C10 26.4498 10.45 25.9998 11 25.9998H29C29.55 25.9998 30 26.4498 30 26.9998V29.9998Z" stroke="black" stroke-width="1.5" stroke-miterlimit="10" stroke-linecap="round" stroke-linejoin="round"/>
<path d="M20 16.5C20.197 16.5 20.392 16.4612 20.574 16.3858C20.756 16.3104 20.9214 16.1999 21.0607 16.0607C21.1999 15.9214 21.3104 15.756 21.3858 15.574C21.4612 15.392 21.5 15.197 21.5 15C21.5 14.803 21.4612 14.608 21.3858 14.426C21.3104 14.244 21.1999 14.0786 21.0607 13.9393C20.9214 13.8001 20.756 13.6896 20.574 13.6142C20.392 13.5388 20.197 13.5 20 13.5C19.6022 13.5 19.2206 13.658 18.9393 13.9393C18.658 14.2206 18.5 14.6022 18.5 15C18.5 15.3978 18.658 15.7794 18.9393 16.0607C19.2206 16.342 19.6022 16.5 20 16.5Z" stroke="black" stroke-width="1.5" stroke-miterlimit="10" stroke-linecap="round" stroke-linejoin="round"/>
</svg>
