<svg width="40" height="40" viewBox="0 0 40 40" fill="none" xmlns="http://www.w3.org/2000/svg">
<path d="M0.5 7C0.5 3.41015 3.41015 0.5 7 0.5H39.5V33C39.5 36.5899 36.5899 39.5 33 39.5H0.5V7Z" fill="#D6FFF0"/>
<path d="M0.5 7C0.5 3.41015 3.41015 0.5 7 0.5H39.5V33C39.5 36.5899 36.5899 39.5 33 39.5H0.5V7Z" stroke="#72FFCB"/>
<path d="M26.8981 13.1056C25.5345 11.7421 23.7973 10.8135 21.9059 10.4373C20.0146 10.0611 18.0543 10.2542 16.2727 10.9922C14.4911 11.7302 12.9684 12.9798 11.8971 14.5832C10.8257 16.1866 10.2539 18.0716 10.2539 20C10.2539 21.9284 10.8257 23.8134 11.8971 25.4168C12.9684 27.0202 14.4911 28.2698 16.2727 29.0078C18.0543 29.7458 20.0146 29.9389 21.9059 29.5627C23.7973 29.1865 25.5345 28.2579 26.8981 26.8944C27.8103 25.9928 28.5344 24.9192 29.0287 23.7357C29.5229 22.5523 29.7774 21.2825 29.7774 20C29.7774 18.7175 29.5229 17.4477 29.0287 16.2643C28.5344 15.0808 27.8103 14.0072 26.8981 13.1056ZM14.165 14.1659C15.515 12.8141 17.2939 11.9751 19.1956 11.7931C19.0123 13.6948 18.1696 15.4725 16.8134 16.8181C15.4659 18.1719 13.6879 19.0125 11.7866 19.1947C11.9701 17.2928 12.8112 15.5144 14.165 14.1659ZM11.7819 20.7013C14.0848 20.5174 16.2461 19.5162 17.8756 17.8784C19.5144 16.2495 20.5163 14.088 20.7003 11.7847C22.6392 11.9463 24.4581 12.7897 25.8342 14.1651C27.2103 15.5405 28.0546 17.359 28.2172 19.2978C25.915 19.4863 23.7546 20.486 22.1208 22.1188C20.487 23.7516 19.4859 25.9114 19.2959 28.2134C17.357 28.0518 15.5381 27.2084 14.162 25.833C12.7859 24.4576 11.9417 22.6391 11.7791 20.7003L11.7819 20.7013ZM25.8369 25.8341C24.4866 27.1855 22.7079 28.0245 20.8062 28.2069C20.9935 26.3067 21.8341 24.5303 23.1847 23.1806C24.5353 21.8309 26.3122 20.9914 28.2125 20.8053C28.0297 22.7069 27.1896 24.4852 25.8369 25.8341Z" fill="black"/>
</svg>
