<svg width="40" height="40" viewBox="0 0 40 40" fill="none" xmlns="http://www.w3.org/2000/svg">
<path d="M0.5 7C0.5 3.41015 3.41015 0.5 7 0.5H39.5V33C39.5 36.5899 36.5899 39.5 33 39.5H0.5V7Z" fill="#FFD4CB"/>
<path d="M0.5 7C0.5 3.41015 3.41015 0.5 7 0.5H39.5V33C39.5 36.5899 36.5899 39.5 33 39.5H0.5V7Z" stroke="#FF947D"/>
<path d="M10.5735 16.4635L19.2325 12.1345C19.3158 12.0929 19.4075 12.0713 19.5005 12.0713C19.5936 12.0713 19.6853 12.0929 19.7685 12.1345L28.4275 16.4645C28.5271 16.5143 28.6109 16.5909 28.6694 16.6857C28.7279 16.7804 28.7589 16.8896 28.7589 17.001C28.7589 17.1123 28.7279 17.2215 28.6694 17.3163C28.6109 17.411 28.5271 17.4876 28.4275 17.5375L19.7685 21.8665C19.6853 21.908 19.5936 21.9296 19.5005 21.9296C19.4075 21.9296 19.3158 21.908 19.2325 21.8665L10.5735 17.5365C10.474 17.4866 10.3902 17.41 10.3317 17.3153C10.2732 17.2205 10.2422 17.1113 10.2422 17C10.2422 16.8886 10.2732 16.7794 10.3317 16.6847C10.3902 16.5899 10.474 16.5133 10.5735 16.4635Z" stroke="black" stroke-width="1.5" stroke-linecap="round" stroke-linejoin="round"/>
<path d="M30.5 21V17.5L28.5 16.5M12.5 18.5V23.912C12.4999 24.2904 12.6072 24.661 12.8093 24.9809C13.0115 25.3007 13.3002 25.5567 13.642 25.719L18.642 28.093C18.9101 28.2203 19.2032 28.2864 19.5 28.2864C19.7968 28.2864 20.0899 28.2203 20.358 28.093L25.358 25.719C25.6998 25.5567 25.9885 25.3007 26.1907 24.9809C26.3928 24.661 26.5001 24.2904 26.5 23.912V18.5" stroke="black" stroke-width="1.5" stroke-linecap="round" stroke-linejoin="round"/>
</svg>
