<svg width="42" height="40" viewBox="0 0 42 40" fill="none" xmlns="http://www.w3.org/2000/svg">
<g clip-path="url(#clip0_2130_9183)">
<path d="M0 7C0 3.13401 3.13401 0 7 0H42V33C42 36.866 38.866 40 35 40H0V7Z" fill="#D6FFF0"/>
<path d="M17.5018 10V13M22.5018 10V13M20.0018 30V24M18.5018 24H21.5018C24.0018 24 25.5018 22.2 25.5018 20V14.91C25.5018 13.86 24.6418 13 23.5918 13H16.4218C15.3718 13 14.5118 13.86 14.5118 14.91V20C14.5018 22.2 16.0018 24 18.5018 24Z" stroke="black" stroke-width="1.5" stroke-linecap="round" stroke-linejoin="round"/>
</g>
<path d="M0.5 7C0.5 3.41015 3.41015 0.5 7 0.5H41.5V33C41.5 36.5899 38.5899 39.5 35 39.5H0.5V7Z" stroke="#72FFCB"/>
<defs>
<clipPath id="clip0_2130_9183">
<path d="M0 7C0 3.13401 3.13401 0 7 0H42V33C42 36.866 38.866 40 35 40H0V7Z" fill="white"/>
</clipPath>
</defs>
</svg>
