<svg width="40" height="40" viewBox="0 0 40 40" fill="none" xmlns="http://www.w3.org/2000/svg">
<path d="M0.5 7C0.5 3.41015 3.41015 0.5 7 0.5H39.5V33C39.5 36.5899 36.5899 39.5 33 39.5H0.5V7Z" fill="#F6E9FE"/>
<path d="M0.5 7C0.5 3.41015 3.41015 0.5 7 0.5H39.5V33C39.5 36.5899 36.5899 39.5 33 39.5H0.5V7Z" stroke="#632FD9"/>
<path d="M30 20C30 14.477 25.523 10 20 10C14.477 10 10 14.477 10 20C10 25.523 14.477 30 20 30" stroke="black" stroke-width="1.5" stroke-linecap="round" stroke-linejoin="round"/>
<path d="M20.9989 10.0498C20.9989 10.0498 23.9989 13.9998 23.9989 19.9998M18.9989 29.9498C18.9989 29.9498 15.9989 25.9998 15.9989 19.9998C15.9989 13.9998 18.9989 10.0498 18.9989 10.0498M10.6289 23.4998H19.9989M10.6289 16.4998H29.3689" stroke="black" stroke-width="1.5" stroke-linecap="round" stroke-linejoin="round"/>
<path d="M29.8792 25.9167C30.3732 26.2207 30.3422 26.9597 29.8342 27.0177L27.2672 27.3087L26.1162 29.6207C25.8882 30.0797 25.1832 29.8547 25.0662 29.2867L23.8112 23.1707C23.7122 22.6907 24.1442 22.3887 24.5612 22.6457L29.8792 25.9167Z" stroke="black" stroke-width="1.5"/>
</svg>
