<svg width="137" height="178" viewBox="0 0 137 178" fill="none" xmlns="http://www.w3.org/2000/svg">
<path d="M56.5437 32.3478C43.3637 26.3478 29.0853 20.2826 23.5937 18L17.0037 20.6087L53.6606 32.3478L56.5437 33" stroke="url(#paint0_linear_2945_8749)"/>
<path d="M43.391 1C47.0979 4.26087 61.5597 19.6845 89.5673 50.9888L95.6992 63.9348L84.9905 68.5L74.6936 52.1957L72.6342 47.6304L31.0348 49.913L33.0942 40.1304L68.5154 42.7391L66.4561 41.1087L19.5023 33.9348L25.6804 28.0652L61.9254 33.2826L38.8604 21.8696L45.8623 19.2609L33.0942 8.5L43.391 1Z" fill="#63B13E"/>
<path d="M89.5673 50.9888C61.5597 19.6845 47.0979 4.26087 43.391 1L33.0942 8.5L45.8623 19.2609L38.8604 21.8696L61.9254 33.2826L25.6804 28.0652L19.5023 33.9348L66.4561 41.1087L68.5154 42.7391L33.0942 40.1304L31.0348 49.913L72.6342 47.6304L74.6936 52.1957L84.9905 68.5L95.6992 63.9348L89.5211 50.8913" stroke="url(#paint1_linear_2945_8749)"/>
<path d="M96 34.3478C106.435 28.3478 117.739 22.2826 122.087 20L127.304 22.6087L98.2826 34.3478L96 35" stroke="url(#paint2_linear_2945_8749)"/>
<path d="M106.413 3C103.478 6.26087 92.0287 21.6845 69.8547 52.9888L65 65.9348L73.4783 70.5L81.6304 54.1957L83.2609 49.6304L116.196 51.913L114.565 42.1304L86.5217 44.7391L88.1522 43.1087L125.326 35.9348L120.435 30.0652L91.7391 35.2826L110 23.8696L104.457 21.2609L114.565 10.5L106.413 3Z" fill="#63B13E"/>
<path d="M69.8547 52.9888C92.0287 21.6845 103.478 6.26087 106.413 3L114.565 10.5L104.457 21.2609L110 23.8696L91.7391 35.2826L120.435 30.0652L125.326 35.9348L88.1522 43.1087L86.5217 44.7391L114.565 42.1304L116.196 51.913L83.2609 49.6304L81.6304 54.1957L73.4783 70.5L65 65.9348L69.8913 52.8913" stroke="url(#paint3_linear_2945_8749)"/>
<circle cx="78.5" cy="51.5" r="8.5" fill="#F94F46"/>
<circle cx="74.5" cy="47.5" r="1.5" fill="#FF746C"/>
<g filter="url(#filter0_d_2945_8749)">
<circle cx="92.5002" cy="50.5049" r="8.5" fill="#FF7428"/>
</g>
<circle cx="96.5002" cy="46.5" r="1.5" fill="#FF8D4F"/>
<rect x="86.6829" y="41.127" width="2" height="4" transform="rotate(-34.0934 86.6829 41.127)" fill="url(#paint4_linear_2945_8749)"/>
<rect x="81.2458" y="40" width="2" height="4" transform="rotate(18.1472 81.2458 40)" fill="url(#paint5_linear_2945_8749)"/>
<g filter="url(#filter1_d_2945_8749)">
<circle cx="106.5" cy="49.499" r="8.5" fill="#FF7428"/>
</g>
<circle cx="110.5" cy="45.4941" r="1.5" fill="#FF8D4F"/>
<rect x="100.683" y="40.1211" width="2" height="4" transform="rotate(-34.0934 100.683 40.1211)" fill="url(#paint6_linear_2945_8749)"/>
<ellipse cx="18.9519" cy="56.0554" rx="18.9519" ry="56.0554" transform="matrix(0.930263 -0.366893 0.242458 0.970162 25 17.9062)" fill="#EFB940"/>
<ellipse cx="48.0813" cy="29.0995" rx="6" ry="1" transform="rotate(-10.7328 48.0813 29.0995)" fill="#D9D9D9"/>
<ellipse cx="48.9348" cy="33.6368" rx="11.7571" ry="1.5" transform="rotate(-10.7328 48.9348 33.6368)" fill="#D9D9D9"/>
<ellipse cx="50.0813" cy="39.0995" rx="6" ry="1" transform="rotate(-10.7328 50.0813 39.0995)" fill="#D9D9D9"/>
<g filter="url(#filter2_d_2945_8749)">
<ellipse cx="47.9678" cy="53.0751" rx="10" ry="15" transform="rotate(-31.1756 47.9678 53.0751)" fill="#CAA986"/>
</g>
<ellipse cx="47.4408" cy="43.7513" rx="1.875" ry="2.25" transform="rotate(-31.1756 47.4408 43.7513)" fill="#E6C199"/>
<g filter="url(#filter3_d_2945_8749)">
<ellipse cx="31.697" cy="56.6073" rx="10" ry="15" transform="rotate(-31.1756 31.697 56.6073)" fill="#CAA986"/>
</g>
<ellipse cx="31.1701" cy="47.2836" rx="1.875" ry="2.25" transform="rotate(-31.1756 31.1701 47.2836)" fill="#E6C199"/>
<path d="M18.1466 60.2924C18.3547 58.9424 19.4486 57.9034 20.8076 57.765L123.451 47.3106C125.124 47.1402 126.611 48.3787 126.745 50.0555L136.74 174.76C136.88 176.506 135.501 178 133.75 178H3.49794C1.65891 178 0.252762 176.36 0.53297 174.543L18.1466 60.2924Z" fill="#7A43F7"/>
<path d="M22.6617 66.215C22.7293 65.7642 23.0932 65.4161 23.5465 65.3687L116.246 55.6578C116.806 55.5991 117.304 56.0136 117.347 56.5746L126.376 172.422C126.421 173.003 125.961 173.5 125.379 173.5H7.74159C7.13027 173.5 6.66202 172.956 6.75264 172.352L22.6617 66.215Z" stroke="#B493FF"/>
<defs>
<filter id="filter0_d_2945_8749" x="84.0002" y="42.0049" width="17" height="21" filterUnits="userSpaceOnUse" color-interpolation-filters="sRGB">
<feFlood flood-opacity="0" result="BackgroundImageFix"/>
<feColorMatrix in="SourceAlpha" type="matrix" values="0 0 0 0 0 0 0 0 0 0 0 0 0 0 0 0 0 0 127 0" result="hardAlpha"/>
<feOffset dy="4"/>
<feComposite in2="hardAlpha" operator="out"/>
<feColorMatrix type="matrix" values="0 0 0 0 0 0 0 0 0 0 0 0 0 0 0 0 0 0 0.25 0"/>
<feBlend mode="normal" in2="BackgroundImageFix" result="effect1_dropShadow_2945_8749"/>
<feBlend mode="normal" in="SourceGraphic" in2="effect1_dropShadow_2945_8749" result="shape"/>
</filter>
<filter id="filter1_d_2945_8749" x="98" y="40.999" width="17" height="21" filterUnits="userSpaceOnUse" color-interpolation-filters="sRGB">
<feFlood flood-opacity="0" result="BackgroundImageFix"/>
<feColorMatrix in="SourceAlpha" type="matrix" values="0 0 0 0 0 0 0 0 0 0 0 0 0 0 0 0 0 0 127 0" result="hardAlpha"/>
<feOffset dy="4"/>
<feComposite in2="hardAlpha" operator="out"/>
<feColorMatrix type="matrix" values="0 0 0 0 0 0 0 0 0 0 0 0 0 0 0 0 0 0 0.25 0"/>
<feBlend mode="normal" in2="BackgroundImageFix" result="effect1_dropShadow_2945_8749"/>
<feBlend mode="normal" in="SourceGraphic" in2="effect1_dropShadow_2945_8749" result="shape"/>
</filter>
<filter id="filter2_d_2945_8749" x="35.4136" y="39.2334" width="24.1084" height="28.6836" filterUnits="userSpaceOnUse" color-interpolation-filters="sRGB">
<feFlood flood-opacity="0" result="BackgroundImageFix"/>
<feColorMatrix in="SourceAlpha" type="matrix" values="0 0 0 0 0 0 0 0 0 0 0 0 0 0 0 0 0 0 127 0" result="hardAlpha"/>
<feOffset dx="-1" dy="1"/>
<feComposite in2="hardAlpha" operator="out"/>
<feColorMatrix type="matrix" values="0 0 0 0 0.229167 0 0 0 0 0.120219 0 0 0 0 0 0 0 0 1 0"/>
<feBlend mode="normal" in2="BackgroundImageFix" result="effect1_dropShadow_2945_8749"/>
<feBlend mode="normal" in="SourceGraphic" in2="effect1_dropShadow_2945_8749" result="shape"/>
</filter>
<filter id="filter3_d_2945_8749" x="19.1428" y="42.7656" width="24.1084" height="28.6836" filterUnits="userSpaceOnUse" color-interpolation-filters="sRGB">
<feFlood flood-opacity="0" result="BackgroundImageFix"/>
<feColorMatrix in="SourceAlpha" type="matrix" values="0 0 0 0 0 0 0 0 0 0 0 0 0 0 0 0 0 0 127 0" result="hardAlpha"/>
<feOffset dx="-1" dy="1"/>
<feComposite in2="hardAlpha" operator="out"/>
<feColorMatrix type="matrix" values="0 0 0 0 0.229167 0 0 0 0 0.120219 0 0 0 0 0 0 0 0 1 0"/>
<feBlend mode="normal" in2="BackgroundImageFix" result="effect1_dropShadow_2945_8749"/>
<feBlend mode="normal" in="SourceGraphic" in2="effect1_dropShadow_2945_8749" result="shape"/>
</filter>
<linearGradient id="paint0_linear_2945_8749" x1="36.7737" y1="18" x2="38.0845" y2="40.0461" gradientUnits="userSpaceOnUse">
<stop stop-color="#52FF00"/>
<stop offset="1" stop-color="#00BE85" stop-opacity="0"/>
</linearGradient>
<linearGradient id="paint1_linear_2945_8749" x1="57.6007" y1="1" x2="57.6007" y2="68.5" gradientUnits="userSpaceOnUse">
<stop stop-color="#00BE85"/>
<stop offset="1" stop-color="#00BE85" stop-opacity="0"/>
</linearGradient>
<linearGradient id="paint2_linear_2945_8749" x1="111.652" y1="20" x2="110" y2="42" gradientUnits="userSpaceOnUse">
<stop stop-color="#52FF00"/>
<stop offset="1" stop-color="#00BE85" stop-opacity="0"/>
</linearGradient>
<linearGradient id="paint3_linear_2945_8749" x1="95.163" y1="3" x2="95.163" y2="70.5" gradientUnits="userSpaceOnUse">
<stop stop-color="#00BE85"/>
<stop offset="1" stop-color="#00BE85" stop-opacity="0"/>
</linearGradient>
<linearGradient id="paint4_linear_2945_8749" x1="87.6829" y1="41.127" x2="87.9407" y2="47.8628" gradientUnits="userSpaceOnUse">
<stop offset="0.417566"/>
<stop offset="1" stop-opacity="0"/>
</linearGradient>
<linearGradient id="paint5_linear_2945_8749" x1="82.2458" y1="40" x2="82.5037" y2="46.7358" gradientUnits="userSpaceOnUse">
<stop offset="0.417566"/>
<stop offset="1" stop-opacity="0"/>
</linearGradient>
<linearGradient id="paint6_linear_2945_8749" x1="101.683" y1="40.1211" x2="101.94" y2="46.8569" gradientUnits="userSpaceOnUse">
<stop offset="0.417566"/>
<stop offset="1" stop-opacity="0"/>
</linearGradient>
</defs>
</svg>
