<svg width="36" height="36" viewBox="0 0 36 36" fill="none" xmlns="http://www.w3.org/2000/svg">
<path d="M0.5 7C0.5 3.41015 3.41015 0.5 7 0.5H35.5V29C35.5 32.5899 32.5899 35.5 29 35.5H0.5V7Z" fill="#BCBCFF"/>
<path d="M0.5 7C0.5 3.41015 3.41015 0.5 7 0.5H35.5V29C35.5 32.5899 32.5899 35.5 29 35.5H0.5V7Z" stroke="#0000C1"/>
<path d="M25.4987 10.5H10.4987C9.58203 10.5 8.83203 11.25 8.83203 12.1667V22.1667C8.83203 23.0833 9.58203 23.8333 10.4987 23.8333H14.6654V25.5H21.332V23.8333H25.4987C26.4154 23.8333 27.157 23.0833 27.157 22.1667L27.1654 12.1667C27.1654 11.25 26.4154 10.5 25.4987 10.5ZM25.4987 22.1667H10.4987V12.1667H25.4987V22.1667Z" fill="black"/>
</svg>
