<svg width="40" height="40" viewBox="0 0 40 40" fill="none" xmlns="http://www.w3.org/2000/svg">
<path d="M0.5 7C0.5 3.41015 3.41015 0.5 7 0.5H39.5V33C39.5 36.5899 36.5899 39.5 33 39.5H0.5V7Z" fill="#BCBCFF"/>
<path d="M0.5 7C0.5 3.41015 3.41015 0.5 7 0.5H39.5V33C39.5 36.5899 36.5899 39.5 33 39.5H0.5V7Z" stroke="#0000C1"/>
<g clip-path="url(#clip0_2145_9277)">
<path d="M18 19.333H20V20.6663H18V19.333Z" fill="black"/>
<path d="M25.632 17.4464C24.4497 15.5116 22.8367 13.8758 20.9187 12.6664C20.0326 12.1048 19.0226 11.7687 17.9767 11.6873C16.9308 11.606 15.8809 11.7819 14.9187 12.1997C14.077 12.5967 13.3447 13.1926 12.7848 13.936C12.225 14.6793 11.8545 15.5478 11.7054 16.4664C11.652 16.7797 11.612 17.0797 11.572 17.373C10.9479 17.4742 10.3799 17.7939 9.96965 18.275C9.55935 18.7561 9.33337 19.3674 9.33203 19.9997V24.0864C9.33203 24.44 9.47251 24.7791 9.72256 25.0292C9.9726 25.2792 10.3117 25.4197 10.6654 25.4197V19.9997C10.6654 19.6461 10.8058 19.3069 11.0559 19.0569C11.3059 18.8068 11.6451 18.6664 11.9987 18.6664H24.4854C25.7702 18.6681 27.002 19.1793 27.9105 20.0879C28.8191 20.9964 29.3303 22.2282 29.332 23.513V23.9997H27.9987C27.7171 23.3131 27.1926 22.7542 26.5253 22.4297C25.8579 22.1051 25.0945 22.0377 24.3805 22.2401C23.6666 22.4426 23.0522 22.9009 22.6546 23.5274C22.257 24.154 22.104 24.905 22.2248 25.6372C22.3456 26.3694 22.7318 27.0315 23.3096 27.4971C23.8874 27.9627 24.6165 28.1993 25.3576 28.1617C26.0987 28.1241 26.8 27.8149 27.3278 27.2932C27.8555 26.7714 28.1726 26.0737 28.2187 25.333H29.332C29.6857 25.333 30.0248 25.1926 30.2748 24.9425C30.5249 24.6925 30.6654 24.3533 30.6654 23.9997V23.513C30.6627 22.0743 30.1587 20.6815 29.24 19.5743C28.3214 18.467 27.0455 17.7146 25.632 17.4464ZM15.332 17.333H12.6187C12.6187 17.1264 12.6787 16.913 12.7187 16.6664C12.8339 15.934 13.1345 15.2433 13.5919 14.6598C14.0493 14.0764 14.6483 13.6197 15.332 13.333V17.333ZM16.6654 17.333V13.053C17.91 12.8914 19.1723 13.1646 20.2387 13.8264C21.6945 14.7332 22.951 15.9262 23.932 17.333H16.6654ZM25.1987 26.9197C24.8691 26.9197 24.5468 26.822 24.2727 26.6388C23.9987 26.4557 23.785 26.1954 23.6589 25.8908C23.5328 25.5863 23.4997 25.2512 23.5641 24.9279C23.6284 24.6046 23.7871 24.3076 24.0202 24.0745C24.2533 23.8414 24.5502 23.6827 24.8735 23.6184C25.1968 23.5541 25.532 23.5871 25.8365 23.7132C26.141 23.8394 26.4013 24.053 26.5845 24.3271C26.7676 24.6012 26.8654 24.9234 26.8654 25.253C26.8654 25.6951 26.6898 26.119 26.3772 26.4315C26.0646 26.7441 25.6407 26.9197 25.1987 26.9197Z" fill="black"/>
<path d="M17.447 24.0001C17.1654 23.3135 16.6409 22.7546 15.9736 22.4301C15.3062 22.1056 14.5428 22.0381 13.8288 22.2406C13.1149 22.443 12.5005 22.9013 12.1029 23.5279C11.7053 24.1544 11.5523 24.9055 11.6731 25.6376C11.7939 26.3698 12.1801 27.0319 12.7579 27.4975C13.3357 27.9631 14.0648 28.1997 14.8059 28.1621C15.547 28.1245 16.2483 27.8153 16.7761 27.2936C17.3038 26.7719 17.6209 26.0741 17.667 25.3335H21.2003V25.1668C21.1871 24.7735 21.2321 24.3803 21.3337 24.0001H17.447ZM14.667 26.9201C14.3374 26.9201 14.0151 26.8224 13.741 26.6392C13.467 26.4561 13.2533 26.1958 13.1272 25.8913C13.0011 25.5867 12.968 25.2516 13.0324 24.9283C13.0967 24.605 13.2554 24.308 13.4885 24.0749C13.7216 23.8419 14.0185 23.6831 14.3418 23.6188C14.6651 23.5545 15.0003 23.5875 15.3048 23.7137C15.6093 23.8398 15.8696 24.0534 16.0528 24.3275C16.2359 24.6016 16.3337 24.9238 16.3337 25.2535C16.3337 25.6955 16.1581 26.1194 15.8455 26.432C15.5329 26.7445 15.109 26.9201 14.667 26.9201Z" fill="black"/>
</g>
<defs>
<clipPath id="clip0_2145_9277">
<rect width="24" height="24" fill="white" transform="translate(8 8)"/>
</clipPath>
</defs>
</svg>
